<?xml version="1.0" standalone="no"?>
<!DOCTYPE svg PUBLIC "-//W3C//DTD SVG 20010904//EN"
 "http://www.w3.org/TR/2001/REC-SVG-20010904/DTD/svg10.dtd">
<svg version="1.0" xmlns="http://www.w3.org/2000/svg"
 width="700.000000pt" height="700.000000pt" viewBox="0 0 700.000000 700.000000"
 preserveAspectRatio="xMidYMid meet">
<metadata>
Created by potrace 1.14, written by Peter Selinger 2001-2017
</metadata>
<g transform="translate(0.000000,700.000000) scale(0.100000,-0.100000)"
fill="#000000" stroke="none">
<path d="M1530 3578 c-558 -1024 -1034 -1897 -1058 -1940 l-42 -78 587 2 587
3 1052 1930 c579 1062 1053 1933 1054 1938 0 4 -262 7 -583 7 l-582 0 -1015
-1862z"/>
<path d="M3931 5303 c-255 -467 -2031 -3727 -2031 -3730 0 -2 260 -3 578 -3
l577 1 1048 1923 c576 1057 1047 1925 1047 1929 0 4 -258 7 -574 7 l-575 0
-70 -127z"/>
</g>
</svg>
